<svg width="155" height="35" viewBox="0 0 155 35" fill="none" xmlns="http://www.w3.org/2000/svg">
<path d="M29.4407 10.2715C26.9523 9.63296 24.4063 9.24437 21.8407 9.11151C20.5807 9.03151 19.2007 8.99151 17.6507 9.00151C16.1007 9.01151 14.7207 9.00151 13.4707 9.11151C10.9051 9.24437 8.35912 9.63296 5.87069 10.2715C3.22069 10.9715 1.87068 20.2115 1.51068 23.0115C1.47678 23.2416 1.52414 23.4763 1.6446 23.6752C1.76506 23.8742 1.95109 24.0249 2.17069 24.1015C2.17069 24.1015 2.97068 24.4215 4.39068 24.8315C8.60585 26.1069 12.9868 26.7506 17.3907 26.7415H17.9407C22.3447 26.7516 26.7257 26.1079 30.9407 24.8315C32.3607 24.4215 33.1707 24.1015 33.1707 24.1015C33.3903 24.0249 33.5763 23.8742 33.6968 23.6752C33.8172 23.4763 33.8646 23.2416 33.8307 23.0115C33.4607 20.1815 32.1007 10.9415 29.4407 10.2715Z" fill="#2D2D2D"/>
<path d="M17.6799 12.8815C23.3353 12.8815 27.9199 12.2547 27.9199 11.4815C27.9199 10.7083 23.3353 10.0815 17.6799 10.0815C12.0245 10.0815 7.43994 10.7083 7.43994 11.4815C7.43994 12.2547 12.0245 12.8815 17.6799 12.8815Z" fill="white"/>
<path d="M11.1213 17.3714V16.5974H12.5673V20.9714H11.7033V17.3714H11.1213ZM13.6611 20.0234C14.0451 19.7034 14.3511 19.4374 14.5791 19.2254C14.8071 19.0094 14.9971 18.7854 15.1491 18.5534C15.3011 18.3214 15.3771 18.0934 15.3771 17.8694C15.3771 17.6654 15.3291 17.5054 15.2331 17.3894C15.1371 17.2734 14.9891 17.2154 14.7891 17.2154C14.5891 17.2154 14.4351 17.2834 14.3271 17.4194C14.2191 17.5514 14.1631 17.7334 14.1591 17.9654H13.3431C13.3591 17.4854 13.5011 17.1214 13.7691 16.8734C14.0411 16.6254 14.3851 16.5014 14.8011 16.5014C15.2571 16.5014 15.6071 16.6234 15.8511 16.8674C16.0951 17.1074 16.2171 17.4254 16.2171 17.8214C16.2171 18.1334 16.1331 18.4314 15.9651 18.7154C15.7971 18.9994 15.6051 19.2474 15.3891 19.4594C15.1731 19.6674 14.8911 19.9194 14.5431 20.2154H16.3131V20.9114H13.3491V20.2874L13.6611 20.0234ZM18.9064 20.9714L17.7784 19.5554V20.9714H16.9384V16.5314H17.7784V19.0574L18.8944 17.6474H19.9864L18.5224 19.3154L19.9984 20.9714H18.9064ZM21.7443 17.5934C21.9923 17.5934 22.2103 17.6434 22.3983 17.7434C22.5863 17.8394 22.7343 17.9654 22.8423 18.1214V17.6474H23.6883V20.9954C23.6883 21.3034 23.6263 21.5774 23.5023 21.8174C23.3783 22.0614 23.1923 22.2534 22.9443 22.3934C22.6963 22.5374 22.3963 22.6094 22.0443 22.6094C21.5723 22.6094 21.1843 22.4994 20.8803 22.2794C20.5803 22.0594 20.4103 21.7594 20.3703 21.3794H21.2043C21.2483 21.5314 21.3423 21.6514 21.4863 21.7394C21.6343 21.8314 21.8123 21.8774 22.0203 21.8774C22.2643 21.8774 22.4623 21.8034 22.6143 21.6554C22.7663 21.5114 22.8423 21.2914 22.8423 20.9954V20.4794C22.7343 20.6354 22.5843 20.7654 22.3923 20.8694C22.2043 20.9734 21.9883 21.0254 21.7443 21.0254C21.4643 21.0254 21.2083 20.9534 20.9763 20.8094C20.7443 20.6654 20.5603 20.4634 20.4243 20.2034C20.2923 19.9394 20.2263 19.6374 20.2263 19.2974C20.2263 18.9614 20.2923 18.6634 20.4243 18.4034C20.5603 18.1434 20.7423 17.9434 20.9703 17.8034C21.2023 17.6634 21.4603 17.5934 21.7443 17.5934ZM22.8423 19.3094C22.8423 19.1054 22.8023 18.9314 22.7223 18.7874C22.6423 18.6394 22.5343 18.5274 22.3983 18.4514C22.2623 18.3714 22.1163 18.3314 21.9603 18.3314C21.8043 18.3314 21.6603 18.3694 21.5283 18.4454C21.3963 18.5214 21.2883 18.6334 21.2043 18.7814C21.1243 18.9254 21.0843 19.0974 21.0843 19.2974C21.0843 19.4974 21.1243 19.6734 21.2043 19.8254C21.2883 19.9734 21.3963 20.0874 21.5283 20.1674C21.6643 20.2474 21.8083 20.2874 21.9603 20.2874C22.1163 20.2874 22.2623 20.2494 22.3983 20.1734C22.5343 20.0934 22.6423 19.9814 22.7223 19.8374C22.8023 19.6894 22.8423 19.5134 22.8423 19.3094Z" fill="white"/>
<path d="M57.44 15.48C57.44 16.2933 57.2533 17.04 56.88 17.72C56.5067 18.3867 55.9333 18.9267 55.16 19.34C54.3867 19.7533 53.4267 19.96 52.28 19.96H50.16V25H46.74V10.96H52.28C53.4 10.96 54.3467 11.1533 55.12 11.54C55.8933 11.9267 56.4733 12.46 56.86 13.14C57.2467 13.82 57.44 14.6 57.44 15.48ZM52.02 17.24C52.6733 17.24 53.16 17.0867 53.48 16.78C53.8 16.4733 53.96 16.04 53.96 15.48C53.96 14.92 53.8 14.4867 53.48 14.18C53.16 13.8733 52.6733 13.72 52.02 13.72H50.16V17.24H52.02ZM62.6405 13.7V16.54H67.2205V19.18H62.6405V22.26H67.8205V25H59.2205V10.96H67.8205V13.7H62.6405ZM80.1408 10.96V13.7H76.4208V25H73.0008V13.7H69.2808V10.96H80.1408ZM101.177 10.96L97.5172 25H93.3772L91.1372 15.76L88.8172 25H84.6772L81.1172 10.96H84.7772L86.7972 21.18L89.2972 10.96H93.0572L95.4572 21.18L97.4972 10.96H101.177ZM109.532 25.14C108.212 25.14 106.999 24.8333 105.892 24.22C104.799 23.6067 103.926 22.7533 103.272 21.66C102.632 20.5533 102.312 19.3133 102.312 17.94C102.312 16.5667 102.632 15.3333 103.272 14.24C103.926 13.1467 104.799 12.2933 105.892 11.68C106.999 11.0667 108.212 10.76 109.532 10.76C110.852 10.76 112.059 11.0667 113.152 11.68C114.259 12.2933 115.126 13.1467 115.752 14.24C116.392 15.3333 116.712 16.5667 116.712 17.94C116.712 19.3133 116.392 20.5533 115.752 21.66C115.112 22.7533 114.246 23.6067 113.152 24.22C112.059 24.8333 110.852 25.14 109.532 25.14ZM109.532 22.02C110.652 22.02 111.546 21.6467 112.212 20.9C112.892 20.1533 113.232 19.1667 113.232 17.94C113.232 16.7 112.892 15.7133 112.212 14.98C111.546 14.2333 110.652 13.86 109.532 13.86C108.399 13.86 107.492 14.2267 106.812 14.96C106.146 15.6933 105.812 16.6867 105.812 17.94C105.812 19.18 106.146 20.1733 106.812 20.92C107.492 21.6533 108.399 22.02 109.532 22.02ZM125.775 25L122.855 19.7H122.035V25H118.615V10.96H124.355C125.462 10.96 126.402 11.1533 127.175 11.54C127.962 11.9267 128.548 12.46 128.935 13.14C129.322 13.8067 129.515 14.5533 129.515 15.38C129.515 16.3133 129.248 17.1467 128.715 17.88C128.195 18.6133 127.422 19.1333 126.395 19.44L129.635 25H125.775ZM122.035 17.28H124.155C124.782 17.28 125.248 17.1267 125.555 16.82C125.875 16.5133 126.035 16.08 126.035 15.52C126.035 14.9867 125.875 14.5667 125.555 14.26C125.248 13.9533 124.782 13.8 124.155 13.8H122.035V17.28ZM135.082 22.36H139.562V25H131.662V10.96H135.082V22.36ZM146.453 10.96C147.933 10.96 149.226 11.2533 150.333 11.84C151.44 12.4267 152.293 13.2533 152.893 14.32C153.506 15.3733 153.813 16.5933 153.813 17.98C153.813 19.3533 153.506 20.5733 152.893 21.64C152.293 22.7067 151.433 23.5333 150.313 24.12C149.206 24.7067 147.92 25 146.453 25H141.193V10.96H146.453ZM146.233 22.04C147.526 22.04 148.533 21.6867 149.253 20.98C149.973 20.2733 150.333 19.2733 150.333 17.98C150.333 16.6867 149.973 15.68 149.253 14.96C148.533 14.24 147.526 13.88 146.233 13.88H144.613V22.04H146.233Z" fill="#2D2D2D"/>
</svg>
